<svg data-v-423bf9ae="" xmlns="http://www.w3.org/2000/svg" viewBox="0 0 237 90" class="iconLeftSlogan"><!----><!----><!----><g data-v-423bf9ae="" id="6ae2ca58-d4a3-4a8b-8fc1-a112885d4aea" fill="#ffffff" transform="matrix(5.474453012044838,0,0,5.474453012044838,87.70150604413449,-14.726279392488486)"><path d="M2.93 13.47L2.93 13.41L1.01 7.67L2.88 2.93L2.88 2.87L2.60 2.87L1.02 6.93C0.92 7.17 0.84 7.41 0.77 7.60L0.71 7.60C0.71 7.39 0.73 7.15 0.73 6.87L0.73 2.87L0.45 2.87L0.45 13.47L0.73 13.47L0.73 8.47C0.73 8.15 0.73 7.94 0.71 7.71L0.77 7.71C0.83 7.91 0.88 8.11 0.99 8.43L2.66 13.47ZM5.88 13.47L5.88 2.87L5.60 2.87L5.60 10.01C5.60 10.53 5.60 11.12 5.63 11.58L5.57 11.58C5.52 11.12 5.45 10.63 5.36 10.15L4.13 2.87L3.58 2.87L3.58 13.47L3.86 13.47L3.86 3.35L3.92 3.35L5.66 13.47ZM8.96 13.47L8.08 2.87L7.57 2.87L6.61 13.47L6.89 13.47L7.18 10.14L8.40 10.14L8.68 13.47ZM8.39 9.86L7.21 9.86L7.70 4.44C7.74 3.98 7.78 3.58 7.80 3.16L7.85 3.16C7.87 3.58 7.91 3.98 7.94 4.44ZM11.37 9.41C11.38 9.73 11.38 9.98 11.38 10.36C11.38 11.52 11.34 12.33 11.19 12.82C11.06 13.19 10.88 13.37 10.57 13.37C10.16 13.37 9.98 13.20 9.87 12.73C9.74 12.15 9.67 11.35 9.67 8.08C9.67 4.82 9.73 4.20 9.87 3.60C9.98 3.12 10.16 2.97 10.54 2.97C10.88 2.97 11.07 3.14 11.20 3.54C11.34 3.99 11.37 4.72 11.37 5.81C11.37 6.26 11.37 6.44 11.35 6.75L11.63 6.75C11.65 6.44 11.65 6.26 11.65 5.81C11.65 4.70 11.62 3.95 11.47 3.44C11.31 2.93 11.03 2.69 10.54 2.69C10.01 2.69 9.74 2.90 9.60 3.53C9.45 4.17 9.39 4.80 9.39 8.08C9.39 11.35 9.46 12.17 9.60 12.78C9.76 13.43 10.01 13.65 10.57 13.65C11.00 13.65 11.26 13.43 11.42 12.98C11.62 12.45 11.66 11.58 11.66 10.36C11.66 10.01 11.66 9.72 11.65 9.41ZM14.98 13.47L14.98 13.41L13.06 7.67L14.94 2.93L14.94 2.87L14.66 2.87L13.08 6.93C12.98 7.17 12.89 7.41 12.82 7.60L12.77 7.60C12.77 7.39 12.78 7.15 12.78 6.87L12.78 2.87L12.50 2.87L12.50 13.47L12.78 13.47L12.78 8.47C12.78 8.15 12.78 7.94 12.77 7.71L12.82 7.71C12.88 7.91 12.94 8.11 13.05 8.43L14.71 13.47ZM16.98 13.47C17.30 13.47 17.51 13.33 17.67 13.01C17.88 12.56 17.95 12.12 17.95 10.61C17.95 8.71 17.86 8.50 17.74 8.26C17.68 8.16 17.57 8.04 17.44 8.01L17.44 7.95C17.56 7.88 17.68 7.76 17.72 7.63C17.84 7.34 17.89 7.14 17.89 5.73C17.89 4.30 17.81 3.74 17.63 3.32C17.49 2.98 17.29 2.87 16.91 2.87L15.65 2.87L15.65 13.47ZM15.93 13.19L15.93 8.13L16.80 8.13C17.23 8.13 17.35 8.19 17.49 8.40C17.64 8.64 17.67 8.72 17.67 10.61C17.67 12.18 17.61 12.45 17.44 12.84C17.32 13.12 17.22 13.19 16.98 13.19ZM15.93 7.85L15.93 3.15L16.91 3.15C17.15 3.15 17.29 3.23 17.39 3.44C17.56 3.81 17.61 4.33 17.61 5.73C17.61 7.15 17.58 7.35 17.46 7.59C17.33 7.83 17.22 7.85 16.80 7.85ZM18.84 12.78C18.98 13.44 19.24 13.65 19.78 13.65C20.31 13.65 20.57 13.44 20.72 12.78C20.86 12.14 20.92 11.49 20.92 8.16C20.92 4.83 20.86 4.21 20.72 3.56C20.57 2.91 20.31 2.69 19.78 2.69C19.24 2.69 18.98 2.91 18.84 3.56C18.69 4.21 18.63 4.83 18.63 8.16C18.63 11.49 18.69 12.14 18.84 12.78ZM20.44 12.73C20.34 13.22 20.16 13.37 19.78 13.37C19.40 13.37 19.22 13.22 19.11 12.73C18.97 12.12 18.91 11.49 18.91 8.16C18.91 4.84 18.98 4.24 19.12 3.61C19.24 3.14 19.40 2.97 19.78 2.97C20.16 2.97 20.36 3.14 20.45 3.63C20.59 4.27 20.64 4.89 20.64 8.16C20.64 11.44 20.58 12.08 20.44 12.73ZM21.85 12.78C21.99 13.44 22.25 13.65 22.79 13.65C23.32 13.65 23.58 13.44 23.73 12.78C23.87 12.14 23.93 11.49 23.93 8.16C23.93 4.83 23.87 4.21 23.73 3.56C23.58 2.91 23.32 2.69 22.79 2.69C22.25 2.69 21.99 2.91 21.85 3.56C21.70 4.21 21.64 4.83 21.64 8.16C21.64 11.49 21.70 12.14 21.85 12.78ZM23.45 12.73C23.35 13.22 23.17 13.37 22.79 13.37C22.41 13.37 22.23 13.22 22.12 12.73C21.98 12.12 21.92 11.49 21.92 8.16C21.92 4.84 21.99 4.24 22.13 3.61C22.25 3.14 22.41 2.97 22.79 2.97C23.17 2.97 23.37 3.14 23.46 3.63C23.60 4.27 23.65 4.89 23.65 8.16C23.65 11.44 23.59 12.08 23.45 12.73ZM27.22 13.47L27.22 13.41L25.30 7.67L27.17 2.93L27.17 2.87L26.89 2.87L25.31 6.93C25.21 7.17 25.13 7.41 25.06 7.60L25.00 7.60C25.00 7.39 25.02 7.15 25.02 6.87L25.02 2.87L24.74 2.87L24.74 13.47L25.02 13.47L25.02 8.47C25.02 8.15 25.02 7.94 25.00 7.71L25.06 7.71C25.12 7.91 25.17 8.11 25.28 8.43L26.95 13.47Z"></path></g><!----><g data-v-423bf9ae="" id="6911925d-187c-4872-86eb-e35526e763eb" transform="matrix(2.0455104078620976,0,0,2.0455104078620976,-13.243251221560989,-4.092060018626597)" stroke="none" fill="#391B51"><circle cx="36.601" cy="11.088" r="4.55"></circle><path d="M33.165 37.785l-1.885-7.76a3.183 3.183 0 0 1 .407-2.45l3.809-5.978c.598-.939.796-2.055.555-3.143s-.892-2.016-1.832-2.615a4.135 4.135 0 0 0-1.474-.581l-5.664-1.059 1.704-1.286c.189-.143.343-.316.476-.504.255.128.535.204.83.204h.003c.499 0 .967-.193 1.319-.545.353-.352.549-.82.55-1.32 0-.5-.194-.969-.545-1.322a1.862 1.862 0 0 0-2.134-.364l-.948-.004a2.24 2.24 0 0 0-.597-.18 2.26 2.26 0 0 0-1.22.174l-2.063-.006h-.002a.5.5 0 0 0-.493.424l-.484-.029a3.735 3.735 0 0 0-2.916 1.116 17.456 17.456 0 0 1-13.19 5.174.5.5 0 1 0-.043 1 18.51 18.51 0 0 0 13.944-5.472 2.816 2.816 0 0 1 2.145-.82l.427.026c.005.151.073.29.19.38l-3.116 2.352a2.612 2.612 0 0 0-.51 3.652c.393.52.96.873 1.602.993l5.757 1.076-.87 1.366a27.87 27.87 0 0 0-2.92 6.118l-5.472 16.316a2.472 2.472 0 0 0 .13 1.9c.297.596.807 1.04 1.438 1.251a2.478 2.478 0 0 0 1.901-.13 2.473 2.473 0 0 0 1.25-1.438l3.711-11.064 1.143 4.705a8.954 8.954 0 0 0 2.183 4.022l2.847 3.017a2.494 2.494 0 0 0 3.52.102 2.495 2.495 0 0 0 .101-3.52l-3.564-3.778zM14.977 4.977c-.908 0-1.646.738-1.646 1.646s.738 1.647 1.646 1.647 1.647-.739 1.647-1.647V2.5a.496.496 0 0 0-.204-.402.507.507 0 0 0-.446-.075l-4.408 1.375a.501.501 0 0 0-.35.478v2.61A1.648 1.648 0 0 0 8.923 8c0 .908.738 1.647 1.646 1.647s1.647-.739 1.647-1.647V4.243l3.408-1.064v1.93a1.638 1.638 0 0 0-.647-.132z"></path></g><!----><g data-v-423bf9ae="" id="35fde91b-2931-46ba-b4b1-137674f6d96b" fill="#ffffff" transform="matrix(0.3997438574162924,0,0,0.3997438574162924,89.7572774173023,59.160537685427585)"><path d="M7.85 2.21L7.85 7.52C7.85 9.67 6.43 10.57 4.96 10.57C3.49 10.57 2.07 9.67 2.07 7.52L2.07 2.21L1.02 2.21L1.02 7.49C1.02 9.95 2.65 11.59 4.96 11.59C7.28 11.59 8.90 9.94 8.90 7.49L8.90 2.21ZM25.00 2.21L25.00 10.01L19.28 2.21L18.06 2.21L18.06 11.48L19.11 11.48L19.11 3.65L24.84 11.48L26.05 11.48L26.05 2.21ZM35.32 2.21L35.32 11.48L41.43 11.48L41.43 10.47L36.37 10.47L36.37 2.21ZM56.60 3.22L56.60 2.21L49.78 2.21L49.78 11.48L56.60 11.48L56.60 10.47L50.83 10.47L50.83 7.35L55.99 7.35L55.99 6.33L50.83 6.33L50.83 3.22ZM69.45 2.21L68.14 2.21L64.20 11.48L65.37 11.48L66.50 8.79L71.09 8.79L72.23 11.48L73.39 11.48ZM66.91 7.83L68.80 3.30L70.69 7.83ZM82.18 4.65C82.18 4.03 82.54 3.08 84.64 3.08C86.34 3.08 87.12 3.82 87.23 4.75L88.31 4.75C88.23 3.36 87.11 2.10 84.64 2.10C82.32 2.10 81.16 3.15 81.16 4.66C81.16 7.84 87.50 6.69 87.50 8.96C87.50 10.05 86.52 10.60 84.95 10.60C83.34 10.60 82.04 10.05 81.97 8.71L80.88 8.71C81.02 10.37 82.14 11.59 84.88 11.59C87.16 11.59 88.55 10.64 88.55 8.92C88.55 5.68 82.18 6.80 82.18 4.65ZM103.61 2.21L103.61 6.33L98.22 6.33L98.22 2.21L97.17 2.21L97.17 11.48L98.22 11.48L98.22 7.35L103.61 7.35L103.61 11.48L104.66 11.48L104.66 2.21ZM130.49 2.21L122.98 2.21L122.98 3.22L126.21 3.22L126.21 11.48L127.26 11.48L127.26 3.22L130.49 3.22ZM145.26 2.21L145.26 6.33L139.87 6.33L139.87 2.21L138.82 2.21L138.82 11.48L139.87 11.48L139.87 7.35L145.26 7.35L145.26 11.48L146.31 11.48L146.31 2.21ZM162.40 3.22L162.40 2.21L155.58 2.21L155.58 11.48L162.40 11.48L162.40 10.47L156.63 10.47L156.63 7.35L161.78 7.35L161.78 6.33L156.63 6.33L156.63 3.22ZM187.80 2.21L187.80 7.52C187.80 9.67 186.37 10.57 184.90 10.57C183.43 10.57 182.01 9.67 182.01 7.52L182.01 2.21L180.96 2.21L180.96 7.49C180.96 9.95 182.59 11.59 184.90 11.59C187.22 11.59 188.85 9.94 188.85 7.49L188.85 2.21ZM204.95 2.21L204.95 10.01L199.22 2.21L198.00 2.21L198.00 11.48L199.05 11.48L199.05 3.65L204.78 11.48L206.00 11.48L206.00 2.21ZM222.95 2.21L221.47 2.21L216.31 7.04L216.31 2.21L215.26 2.21L215.26 11.48L216.31 11.48L216.31 8.44L218.23 6.65L221.86 11.48L223.17 11.48L219.00 5.94ZM238.18 2.21L238.18 10.01L232.46 2.21L231.24 2.21L231.24 11.48L232.29 11.48L232.29 3.65L238.01 11.48L239.23 11.48L239.23 2.21ZM252.62 2.10C249.80 2.10 247.91 4.21 247.91 6.85C247.91 9.48 249.80 11.59 252.62 11.59C255.43 11.59 257.32 9.48 257.32 6.85C257.32 4.21 255.43 2.10 252.62 2.10ZM252.62 10.57C250.36 10.57 248.96 8.93 248.96 6.85C248.96 4.76 250.36 3.12 252.62 3.12C254.87 3.12 256.27 4.76 256.27 6.85C256.27 8.93 254.87 10.57 252.62 10.57ZM271.47 3.70L273.98 11.48L275.17 11.48L278.05 2.21L276.95 2.21L274.57 10.00L272.08 2.21L270.87 2.21L268.38 10.00L266 2.21L264.89 2.21L267.78 11.48L268.97 11.48ZM293.26 2.21L293.26 10.01L287.53 2.21L286.31 2.21L286.31 11.48L287.36 11.48L287.36 3.65L293.09 11.48L294.31 11.48L294.31 2.21Z"></path></g></svg>